<svg xmlns="http://www.w3.org/2000/svg"><symbol viewBox="0 0 48 48" id="sprite-music-next"><title>music-next</title><path d="M12 36l17-12-17-12v24zm20-24v24h4V12h-4z"/><path d="M0 0h48v48H0z" fill="none"/></symbol><symbol viewBox="0 0 48 48" id="sprite-music-pause"><title>music-pause</title><path d="M12 38h8V10h-8v28zm16-28v28h8V10h-8z"/><path d="M0 0h48v48H0z" fill="none"/></symbol><symbol viewBox="0 0 48 48" id="sprite-music-play"><title>music-play</title><path d="M-838-2232H562v3600H-838z" fill="none"/><path d="M16 10v28l22-14z"/><path d="M0 0h48v48H0z" fill="none"/></symbol><symbol viewBox="0 0 48 48" id="sprite-music-prev"><title>music-prev</title><path d="M12 12h4v24h-4zm7 12l17 12V12z"/><path d="M0 0h48v48H0z" fill="none"/></symbol><symbol viewBox="0 0 512 512" id="sprite-share-facebook"><title>share-facebook</title><path d="M211.9 197.4h-36.7v59.9h36.7V433.1h70.5V256.5h49.2l5.2-59.1h-54.4c0 0 0-22.1 0-33.7 0-13.9 2.8-19.5 16.3-19.5 10.9 0 38.2 0 38.2 0V82.9c0 0-40.2 0-48.8 0 -52.5 0-76.1 23.1-76.1 67.3C211.9 188.8 211.9 197.4 211.9 197.4z"/></symbol><symbol viewBox="0 0 512 512" id="sprite-share-google"><title>share-google</title><path d="M179.7 237.6L179.7 284.2 256.7 284.2C253.6 304.2 233.4 342.9 179.7 342.9 133.4 342.9 95.6 304.4 95.6 257 95.6 209.6 133.4 171.1 179.7 171.1 206.1 171.1 223.7 182.4 233.8 192.1L270.6 156.6C247 134.4 216.4 121 179.7 121 104.7 121 44 181.8 44 257 44 332.2 104.7 393 179.7 393 258 393 310 337.8 310 260.1 310 251.2 309 244.4 307.9 237.6L179.7 237.6 179.7 237.6ZM468 236.7L429.3 236.7 429.3 198 390.7 198 390.7 236.7 352 236.7 352 275.3 390.7 275.3 390.7 314 429.3 314 429.3 275.3 468 275.3"/></symbol><symbol viewBox="0 0 512 512" id="sprite-share-linkedin"><title>share-linkedin</title><path d="M186.4 142.4c0 19-15.3 34.5-34.2 34.5 -18.9 0-34.2-15.4-34.2-34.5 0-19 15.3-34.5 34.2-34.5C171.1 107.9 186.4 123.4 186.4 142.4zM181.4 201.3h-57.8V388.1h57.8V201.3zM273.8 201.3h-55.4V388.1h55.4c0 0 0-69.3 0-98 0-26.3 12.1-41.9 35.2-41.9 21.3 0 31.5 15 31.5 41.9 0 26.9 0 98 0 98h57.5c0 0 0-68.2 0-118.3 0-50-28.3-74.2-68-74.2 -39.6 0-56.3 30.9-56.3 30.9v-25.2H273.8z"/></symbol><symbol viewBox="0 0 512 512" id="sprite-share-tumblr"><title>share-tumblr</title><path d="M210.8 80.3c-2.3 18.3-6.4 33.4-12.4 45.2 -6 11.9-13.9 22-23.9 30.5 -9.9 8.5-21.8 14.9-35.7 19.5v50.6h38.9v124.5c0 16.2 1.7 28.6 5.1 37.1 3.4 8.5 9.5 16.6 18.3 24.2 8.8 7.6 19.4 13.4 31.9 17.5 12.5 4.1 26.8 6.1 43 6.1 14.3 0 27.6-1.4 39.9-4.3 12.3-2.9 26-7.9 41.2-15v-55.9c-17.8 11.7-35.7 17.5-53.7 17.5 -10.1 0-19.1-2.4-27-7.1 -5.9-3.5-10-8.2-12.2-14 -2.2-5.8-3.3-19.1-3.3-39.7v-91.1H345.5v-55.8h-84.4v-90H210.8z"/></symbol><symbol viewBox="0 0 512 512" id="sprite-share-twitter"><title>share-twitter</title><path d="M419.6 168.6c-11.7 5.2-24.2 8.7-37.4 10.2 13.4-8.1 23.8-20.8 28.6-36 -12.6 7.5-26.5 12.9-41.3 15.8 -11.9-12.6-28.8-20.6-47.5-20.6 -42 0-72.9 39.2-63.4 79.9 -54.1-2.7-102.1-28.6-134.2-68 -17 29.2-8.8 67.5 20.1 86.9 -10.7-0.3-20.7-3.3-29.5-8.1 -0.7 30.2 20.9 58.4 52.2 64.6 -9.2 2.5-19.2 3.1-29.4 1.1 8.3 25.9 32.3 44.7 60.8 45.2 -27.4 21.4-61.8 31-96.4 27 28.8 18.5 63 29.2 99.8 29.2 120.8 0 189.1-102.1 185-193.6C399.9 193.1 410.9 181.7 419.6 168.6z"/></symbol></svg>